# xmcd
#
# Track frame offsets:
#	150
#	11260
#	34240
#	51203
#	70786
#	84726
#	103137
#	119136
#	140253
#	157494
#	175658
#	188093
#	202597
#	218528
#	234018
#	244851
#	262208
#	280113
#	293532
#	315787
# Disc length: 4384 seconds
# Revision: 1
# Processed by: cddbd v1.5.2PL0 Copyright (c) Steve Scherf et al.
#
# Submitted via: libkcddb 0.31
#
DISCID=14111e14
DTITLE=Alan Jackson - A Taste of Alan Jackson
DYEAR=1900
DGENRE=Country
TTITLE0=Chattahoochee
TTITLE1=Good Time
TTITLE2=Midnight in Montgomery
TTITLE3=Gone Country
TTITLE4=Chasin' That Neon Rainbow
TTITLE5=Country Boy
TTITLE6=Like Red On A Rose
TTITLE7=Freight Train
TTITLE8=Livin' On Love
TTITLE9=Where I Come From
TTITLE10=Dallas
TTITLE11=Summertime Blues
TTITLE12=Never Loved Before [with Martina McBride]
TTITLE13=USA Today
TTITLE14=She's Got The Rhythm (And I Got The Blues)
TTITLE15=I Don't Even Know Your Name
TTITLE16=I'll Go On Loving You
TTITLE17=The Talkin' Song Repair Blues
TTITLE18=If Jesus Walked The World Today
TTITLE19=Love's Got a Hold on You
EXTD=
EXTT0=
EXTT1=
EXTT2=
EXTT3=
EXTT4=
EXTT5=
EXTT6=
EXTT7=
EXTT8=
EXTT9=
EXTT10=
EXTT11=
EXTT12=
EXTT13=
EXTT14=
EXTT15=
EXTT16=
EXTT17=
EXTT18=
EXTT19=
PLAYORDER=
